# xmcd CD database file
# Copyright (C) 1996 Ti Kan
#
# Track frame offsets:
# 	150
# 	17122
# 	32865
# 	58012
# 	77637
# 	97912
# 	120442
# 	139380
# 	157285
# 	173530
# 	187312
# 	204702
# 	217000
# 	243355
# 	258925
# 	275300
# 	297662
#
# Disc length: 4144 seconds
#
# Revision: 1
# Processed by: cddbd v1.4b41PL1 Copyright (c) Steve Scherf et al.
# Submitted via: DiscPlay 3.4.1
#
DISCID=03102e11
DTITLE=Various Artist - American Songbook
DYEAR=1900
DGENRE=
TTITLE0=Copperhead Road (acoustic)
TTITLE1=What she's found
TTITLE2=Lonesome sound
TTITLE3=Cleopatra, Queen of denial (dance mix)
TTITLE4=It don't bring you (live)
TTITLE5=This love will carry me
TTITLE6=Parade (alternate version)
TTITLE7=Don't let me down easy
TTITLE8=Glad and sorry (live)
TTITLE9=Beyond the blue
TTITLE10=One way rider (live)
TTITLE11=I cannot give my heart to you
TTITLE12=Pay Bo Diddey
TTITLE13=Geronimo's Cadillac
TTITLE14=Just one more time
TTITLE15=18 wheels and a crowbar (live)
TTITLE16=Flinty kind of woman (live)
EXTD=
EXTT0=
EXTT1=
EXTT2=
EXTT3=
EXTT4=
EXTT5=
EXTT6=
EXTT7=
EXTT8=
EXTT9=
EXTT10=
EXTT11=
EXTT12=
EXTT13=
EXTT14=
EXTT15=
EXTT16=
PLAYORDER=
